<?xml version="1.0" encoding="UTF-8"?>
<svg id="Layer_1" data-name="Layer 1" xmlns="http://www.w3.org/2000/svg" viewBox="0 0 402.5 325.41">
  <defs>
    <style>
      .cls-1 {
        fill: #da3832;
        stroke: #da3832;
        stroke-miterlimit: 10;
      }
    </style>
  </defs>
  <circle class="cls-1" cx="290.83" cy="258.45" r="3.82"/>
  <circle class="cls-1" cx="281.47" cy="248.49" r="3.82"/>
  <circle class="cls-1" cx="285.29" cy="238.8" r="3.82"/>
  <circle class="cls-1" cx="285.29" cy="262.27" r="3.82"/>
  <circle class="cls-1" cx="303.47" cy="281.92" r="3.82"/>
  <circle class="cls-1" cx="295.83" cy="289.56" r="3.82"/>
  <circle class="cls-1" cx="311.11" cy="295" r="3.82"/>
  <circle class="cls-1" cx="318.75" cy="306.13" r="3.82"/>
  <circle class="cls-1" cx="305.2" cy="306.13" r="3.82"/>
  <circle class="cls-1" cx="311.11" cy="317.27" r="3.82"/>
  <circle class="cls-1" cx="299.65" cy="298.82" r="3.82"/>
  <circle class="cls-1" cx="322.57" cy="284.12" r="3.82"/>
  <circle class="cls-1" cx="290.83" cy="306.13" r="3.82"/>
  <circle class="cls-1" cx="290.83" cy="298.82" r="3.82"/>
  <circle class="cls-1" cx="305.2" cy="302.31" r="3.82"/>
  <circle class="cls-1" cx="294.65" cy="313.45" r="3.82"/>
  <circle class="cls-1" cx="330.21" cy="321.09" r="3.82"/>
  <circle class="cls-1" cx="338.84" cy="313.45" r="3.82"/>
  <circle class="cls-1" cx="277.65" cy="231.16" r="3.82"/>
  <circle class="cls-1" cx="277.65" cy="244.67" r="3.82"/>
  <circle class="cls-1" cx="270.56" cy="217.64" r="3.82"/>
  <circle class="cls-1" cx="262.11" cy="217.64" r="3.82"/>
  <circle class="cls-1" cx="260.38" cy="207.68" r="3.82"/>
  <circle class="cls-1" cx="252.74" cy="213.82" r="3.82"/>
  <circle class="cls-1" cx="252.74" cy="197.73" r="3.82"/>
  <circle class="cls-1" cx="243.37" cy="207.68" r="3.82"/>
  <circle class="cls-1" cx="277.39" cy="266.09" r="3.82"/>
  <circle class="cls-1" cx="277.65" cy="257.29" r="3.82"/>
  <circle class="cls-1" cx="230.09" cy="207.68" r="3.82"/>
  <circle class="cls-1" cx="218.48" cy="197.73" r="3.82"/>
  <circle class="cls-1" cx="89.06" cy="143.09" r="3.82"/>
  <circle class="cls-1" cx="76.44" cy="139.27" r="3.82"/>
  <circle class="cls-1" cx="68.8" cy="131.63" r="3.82"/>
  <circle class="cls-1" cx="101.68" cy="135.45" r="3.82"/>
  <circle class="cls-1" cx="56.89" cy="127.81" r="3.82"/>
  <circle class="cls-1" cx="44.98" cy="118.28" r="3.82"/>
  <circle class="cls-1" cx="68.8" cy="143.09" r="3.82"/>
  <circle class="cls-1" cx="35.91" cy="122.1" r="3.82"/>
  <circle class="cls-1" cx="24.65" cy="114.46" r="3.82"/>
  <circle class="cls-1" cx="17.01" cy="100.12" r="3.82"/>
  <circle class="cls-1" cx="97.86" cy="146.91" r="3.82"/>
  <circle class="cls-1" cx="4.32" cy="90.95" r="3.82"/>
  <circle class="cls-1" cx="4.32" cy="78.37" r="3.82"/>
  <circle class="cls-1" cx="8.14" cy="63.13" r="3.82"/>
  <circle class="cls-1" cx="17.01" cy="131.63" r="3.82"/>
  <circle class="cls-1" cx="17.01" cy="122.1" r="3.82"/>
  <circle class="cls-1" cx="114.3" cy="123.99" r="3.82"/>
  <circle class="cls-1" cx="89.06" cy="154.55" r="3.82"/>
  <circle class="cls-1" cx="20.83" cy="115.88" r="3.82"/>
  <circle class="cls-1" cx="80.7" cy="127.81" r="3.82"/>
  <circle class="cls-1" cx="131.61" cy="112.06" r="3.82"/>
  <circle class="cls-1" cx="110.48" cy="139.27" r="3.82"/>
  <circle class="cls-1" cx="20.83" cy="47.89" r="3.82"/>
  <circle class="cls-1" cx="76.88" cy="162.19" r="3.82"/>
  <circle class="cls-1" cx="65.31" cy="166.01" r="3.82"/>
  <circle class="cls-1" cx="26.46" cy="125.92" r="3.82"/>
  <circle class="cls-1" cx="101.68" cy="150.73" r="3.82"/>
  <circle class="cls-1" cx="94.04" cy="135.96" r="3.82"/>
  <circle class="cls-1" cx="110.48" cy="129.74" r="3.82"/>
  <circle class="cls-1" cx="139.25" cy="98.59" r="3.82"/>
  <circle class="cls-1" cx="140.26" cy="74.55" r="3.82"/>
  <circle class="cls-1" cx="51.45" cy="132.14" r="3.82"/>
  <circle class="cls-1" cx="119.28" cy="135.45" r="3.82"/>
  <circle class="cls-1" cx="11.96" cy="112.57" r="3.82"/>
  <circle class="cls-1" cx="32.09" cy="146.91" r="3.82"/>
  <circle class="cls-1" cx="41.16" cy="128.32" r="3.82"/>
  <circle class="cls-1" cx="8.14" cy="96.3" r="3.82"/>
  <circle class="cls-1" cx="8.14" cy="70.73" r="3.82"/>
  <circle class="cls-1" cx="149.51" cy="82.19" r="3.82"/>
  <circle class="cls-1" cx="139.25" cy="112.06" r="3.82"/>
  <circle class="cls-1" cx="126.93" cy="119.7" r="3.82"/>
  <circle class="cls-1" cx="127.79" cy="135.96" r="3.82"/>
  <circle class="cls-1" cx="135.43" cy="65.78" r="3.82"/>
  <circle class="cls-1" cx="144.08" cy="69.6" r="3.82"/>
  <circle class="cls-1" cx="152.73" cy="90.95" r="3.82"/>
  <circle class="cls-1" cx="143.07" cy="86.01" r="3.82"/>
  <circle class="cls-1" cx="32.29" cy="27.16" r="3.82"/>
  <circle class="cls-1" cx="97.86" cy="231.16" r="3.82"/>
  <circle class="cls-1" cx="106.66" cy="221.46" r="3.82"/>
  <circle class="cls-1" cx="106.66" cy="234.98" r="3.82"/>
  <circle class="cls-1" cx="179.15" cy="295" r="3.82"/>
  <circle class="cls-1" cx="210.84" cy="281.92" r="3.82"/>
  <circle class="cls-1" cx="191.59" cy="291.18" r="3.82"/>
  <circle class="cls-1" cx="182.97" cy="289.56" r="3.82"/>
  <circle class="cls-1" cx="227.39" cy="266.09" r="3.82"/>
  <circle class="cls-1" cx="204.04" cy="280.3" r="3.82"/>
  <circle class="cls-1" cx="233.91" cy="269.91" r="3.82"/>
  <circle class="cls-1" cx="169.02" cy="295" r="3.82"/>
  <circle class="cls-1" cx="106.66" cy="244.67" r="3.82"/>
  <circle class="cls-1" cx="119.28" cy="112.57" r="3.82"/>
  <circle class="cls-1" cx="162.39" cy="143.09" r="3.82"/>
  <circle class="cls-1" cx="169.02" cy="146.91" r="3.82"/>
  <circle class="cls-1" cx="266.73" cy="272.98" r="3.82"/>
  <circle class="cls-1" cx="338.84" cy="74.55" r="3.82"/>
  <circle class="cls-1" cx="347.47" cy="78.37" r="3.82"/>
  <circle class="cls-1" cx="356.11" cy="66.91" r="3.82"/>
  <circle class="cls-1" cx="366.57" cy="69.6" r="3.82"/>
  <circle class="cls-1" cx="332.3" cy="65.78" r="3.82"/>
  <circle class="cls-1" cx="379.65" cy="73.42" r="3.82"/>
  <circle class="cls-1" cx="200.22" cy="193.91" r="3.82"/>
  <circle class="cls-1" cx="233.91" cy="213.82" r="3.82"/>
  <circle class="cls-1" cx="251.88" cy="210" r="3.82"/>
  <circle class="cls-1" cx="262.11" cy="197.73" r="3.82"/>
  <circle class="cls-1" cx="247.19" cy="201.55" r="3.82"/>
  <circle class="cls-1" cx="251.01" cy="8.14" r="3.82"/>
  <circle class="cls-1" cx="260.38" cy="11.96" r="3.82"/>
  <circle class="cls-1" cx="218.48" cy="8.14" r="3.82"/>
  <circle class="cls-1" cx="279" cy="13.69" r="3.82"/>
  <circle class="cls-1" cx="362.75" cy="59.31" r="3.82"/>
  <circle class="cls-1" cx="298.47" cy="4.32" r="3.82"/>
  <circle class="cls-1" cx="252.74" cy="15.78" r="3.82"/>
  <circle class="cls-1" cx="347.47" cy="70.73" r="3.82"/>
  <circle class="cls-1" cx="140.26" cy="55.49" r="3.82"/>
  <circle class="cls-1" cx="294.65" cy="269.91" r="3.82"/>
  <circle class="cls-1" cx="305.2" cy="292.11" r="3.82"/>
  <circle class="cls-1" cx="299.65" cy="265.01" r="3.82"/>
  <circle class="cls-1" cx="84.52" cy="146.91" r="3.82"/>
  <circle class="cls-1" cx="207.86" cy="8.14" r="3.82"/>
  <circle class="cls-1" cx="268.02" cy="19.6" r="3.82"/>
  <circle class="cls-1" cx="387.29" cy="78.37" r="3.82"/>
  <circle class="cls-1" cx="398.18" cy="82.19" r="3.82"/>
  <circle class="cls-1" cx="84.52" cy="139.27" r="3.82"/>
  <circle class="cls-1" cx="80.7" cy="187.77" r="3.82"/>
  <circle class="cls-1" cx="268.02" cy="213.82" r="3.82"/>
</svg>